<svg xmlns="http://www.w3.org/2000/svg" viewBox="0 0 2427.48 120.58"><defs><style>.cls-1{fill:#231f20;}</style></defs><g id="Layer_2" data-name="Layer 2"><g id="Layer_1-2" data-name="Layer 1"><path class="cls-1" d="M72.32,26.2V36.9H42v82.88H30.35V36.9H0V26.2Z"/><path class="cls-1" d="M100.79,26.2h13.77l35.56,93.58H137.69L127.8,94.51H87l-9.9,25.27h-12ZM124.32,84l-17-45.05L90.5,84Z"/><path class="cls-1" d="M162,26.2h11.63v82.88h42.64v10.7H162Z"/><path class="cls-1" d="M230.06,26.2h11.63v82.88h42.65v10.7H230.06Z"/><path class="cls-1" d="M357.73,26.2V36.9h-48V66.84h40v10.7h-40v31.54h49.73v10.7H298.1V26.2Z"/><path class="cls-1" d="M426,29.74a26.11,26.11,0,0,1,11,10,29,29,0,0,1,3.87,15.17,27.19,27.19,0,0,1-5.41,16.91,26.65,26.65,0,0,1-14.5,9.7l21,38.23h-13.1l-19.38-36H385.53v36H373.9V26.2h35.83A36,36,0,0,1,426,29.74ZM408.79,73.12q9.22,0,14.71-4.94T429,54.94q0-8.14-5.48-13.1T408.92,36.9H385.53V73.12Z"/><path class="cls-1" d="M521.35,26.2h13.77l35.56,93.58H558.24l-9.89-25.27H507.58l-9.89,25.27h-12ZM544.88,84l-17-45.05L511.05,84Z"/><path class="cls-1" d="M634.71,29.74a26.11,26.11,0,0,1,11,10,29,29,0,0,1,3.88,15.17,27.19,27.19,0,0,1-5.42,16.91,26.65,26.65,0,0,1-14.5,9.7l21,38.23H637.51l-19.38-36H594.2v36H582.57V26.2H618.4A36,36,0,0,1,634.71,29.74ZM617.46,73.12q9.22,0,14.71-4.94t5.48-13.24q0-8.14-5.48-13.1T617.6,36.9H594.2V73.12Z"/><path class="cls-1" d="M755.82,119.78h-8.55a20.44,20.44,0,0,1-8.43-1.47,14.91,14.91,0,0,1-5.74-5l-.94-1.33q-11.24,8.55-26.74,8.55a43.75,43.75,0,0,1-23.12-6.15,42.4,42.4,0,0,1-15.84-17A51.79,51.79,0,0,1,660.77,73a51.82,51.82,0,0,1,5.69-24.46,42.4,42.4,0,0,1,15.84-17,46.55,46.55,0,0,1,46.25,0,42.53,42.53,0,0,1,15.84,17A51.81,51.81,0,0,1,750.07,73a54.31,54.31,0,0,1-2.67,17.25,46.84,46.84,0,0,1-7.62,14.3,11.36,11.36,0,0,0,3.88,3.54,10.92,10.92,0,0,0,4.94,1h7.22ZM722.94,99.46a12.8,12.8,0,0,0-3.75-3.61,8.73,8.73,0,0,0-4.41-1.07h-7.89V84.09h9.76a16.17,16.17,0,0,1,7.49,1.53,16.38,16.38,0,0,1,5.48,5l2.94,4q5.61-9.09,5.62-21.66a42.35,42.35,0,0,0-4.15-19,32,32,0,0,0-11.56-13.1,33,33,0,0,0-34.09,0,32,32,0,0,0-11.56,13.1,42.22,42.22,0,0,0-4.15,19A42.22,42.22,0,0,0,676.82,92a32,32,0,0,0,11.56,13.1,31,31,0,0,0,17,4.75,30.54,30.54,0,0,0,20.06-7Z"/><path class="cls-1" d="M777.74,80.48q0,29.4,23.93,29.41,24.2,0,24.2-29.41V26.2H837.5V79.81q0,20.06-9.16,30.41t-26.67,10.36q-17.5,0-26.53-10.36t-9-30.41V26.2h11.63Z"/><path class="cls-1" d="M868.11,26.2v93.58H856.48V26.2Z"/><path class="cls-1" d="M954.2,26.2V36.9H923.85v82.88H912.22V36.9H881.88V26.2Z"/><path class="cls-1" d="M1027.59,26.2V36.9h-48V66.84h40v10.7h-40v31.54h49.73v10.7H968V26.2Z"/><path class="cls-1" d="M1058.34,31.35a45.63,45.63,0,0,1,23.52-6q15.51,0,26,8.42t13.17,23H1109.4a26.53,26.53,0,0,0-10-15.23q-7.41-5.49-18.11-5.49a30.93,30.93,0,0,0-17,4.68,30.42,30.42,0,0,0-11.29,13,44.42,44.42,0,0,0-4,19.18,44.58,44.58,0,0,0,4,19.12,30.36,30.36,0,0,0,11.29,13.1,30.93,30.93,0,0,0,17,4.68q10.83,0,18.05-5.42t9.89-15.3h11.63q-2.67,14.56-13,23t-26,8.42a45.63,45.63,0,0,1-23.52-6,39.85,39.85,0,0,1-15.65-16.71q-5.48-10.76-5.48-24.93a54.39,54.39,0,0,1,5.48-24.87A39.83,39.83,0,0,1,1058.34,31.35Z"/><path class="cls-1" d="M1198.7,26.2V36.9h-30.35v82.88h-11.63V36.9h-30.34V26.2Z"/><path class="cls-1" d="M1223.56,80.48q0,29.4,23.93,29.41,24.19,0,24.2-29.41V26.2h11.63V79.81q0,20.06-9.16,30.41t-26.67,10.36q-17.51,0-26.53-10.36t-9-30.41V26.2h11.63Z"/><path class="cls-1" d="M1354.43,29.74a26.08,26.08,0,0,1,11,10,29,29,0,0,1,3.87,15.17,27.19,27.19,0,0,1-5.41,16.91,26.64,26.64,0,0,1-14.51,9.7l21,38.23h-13.1l-19.38-36h-23.93v36H1302.3V26.2h35.83A36,36,0,0,1,1354.43,29.74Zm-17.24,43.38q9.22,0,14.7-4.94t5.49-13.24q0-8.14-5.49-13.1t-14.57-4.94h-23.39V73.12Z"/><path class="cls-1" d="M1411.52,26.2h13.77l35.55,93.58h-12.43l-9.89-25.27h-40.77l-9.9,25.27h-12ZM1435,84l-17-45.05L1401.22,84Z"/><path class="cls-1" d="M1526.75,31.35a45.63,45.63,0,0,1,23.52-6q15.51,0,26,8.42t13.17,23h-11.63a26.53,26.53,0,0,0-10-15.23q-7.41-5.49-18.11-5.49a30.93,30.93,0,0,0-17,4.68,30.42,30.42,0,0,0-11.29,13,44.42,44.42,0,0,0-4,19.18,44.58,44.58,0,0,0,4,19.12,30.36,30.36,0,0,0,11.29,13.1,30.93,30.93,0,0,0,17,4.68q10.83,0,18-5.42t9.89-15.3h11.63q-2.67,14.56-13,23t-26,8.42a45.63,45.63,0,0,1-23.52-6,39.85,39.85,0,0,1-15.65-16.71q-5.47-10.76-5.48-24.93a54.39,54.39,0,0,1,5.48-24.87A39.83,39.83,0,0,1,1526.75,31.35Z"/><path class="cls-1" d="M1665,26.2V36.9h-48V66.84h40v10.7h-40v31.54h49.73v10.7h-61.36V26.2ZM1641.58,0h12.83l-15.64,18.05h-8.56Z"/><path class="cls-1" d="M1696.79,104.34q6.95,5.68,17.64,5.68,9.63,0,15.58-4.21a13.55,13.55,0,0,0,5.94-11.7,11.63,11.63,0,0,0-3.27-8.69,19.85,19.85,0,0,0-8.42-4.74,118.72,118.72,0,0,0-14-3q-14-2.4-22.33-7.89T1679.67,52a24.83,24.83,0,0,1,4-14,26.33,26.33,0,0,1,11.3-9.42,39.49,39.49,0,0,1,16.64-3.34,40.42,40.42,0,0,1,17.52,3.61,28.77,28.77,0,0,1,17,25h-11.49a19.29,19.29,0,0,0-7.35-13.1q-6.29-4.94-15.65-4.94t-14.83,4.07a13.42,13.42,0,0,0-5.49,11.43c0,3.57,1.07,6.35,3.21,8.36a20.62,20.62,0,0,0,8.29,4.54,115.28,115.28,0,0,0,13.9,3q14,2.42,22.46,8T1747.58,93a25.09,25.09,0,0,1-4.21,14.31,27.65,27.65,0,0,1-11.76,9.76,41.12,41.12,0,0,1-17.31,3.47,43.46,43.46,0,0,1-19.12-3.94,29.76,29.76,0,0,1-12.63-11.1,33,33,0,0,1-4.88-16.37h11.5A20.56,20.56,0,0,0,1696.79,104.34Z"/><path class="cls-1" d="M1788.36,26.2h13.77l35.56,93.58h-12.44l-9.89-25.27h-40.77l-9.89,25.27h-12ZM1811.89,84l-17-45.05L1778.06,84Z"/><path class="cls-1" d="M1901.72,29.74a26.11,26.11,0,0,1,11,10,29,29,0,0,1,3.88,15.17,27.19,27.19,0,0,1-5.42,16.91,26.65,26.65,0,0,1-14.5,9.7l21,38.23h-13.11l-19.38-36h-23.93v36h-11.63V26.2h35.83A36,36,0,0,1,1901.72,29.74Zm-17.25,43.38q9.22,0,14.71-4.94t5.48-13.24q0-8.14-5.48-13.1t-14.57-4.94h-23.4V73.12Z"/><path class="cls-1" d="M2027.11,26.2V36.9h-46.52V68.18h38.5V78.87h-38.5v40.91H1969V26.2Z"/><path class="cls-1" d="M2040.88,26.2h11.63v82.88h42.64v10.7h-54.27Z"/><path class="cls-1" d="M2164.66,114.43a46.55,46.55,0,0,1-46.25,0,42.53,42.53,0,0,1-15.84-17A51.78,51.78,0,0,1,2096.89,73a51.81,51.81,0,0,1,5.68-24.46,42.53,42.53,0,0,1,15.84-17,46.55,46.55,0,0,1,46.25,0,42.49,42.49,0,0,1,15.85,17A51.93,51.93,0,0,1,2186.19,73a51.9,51.9,0,0,1-5.68,24.46A42.49,42.49,0,0,1,2164.66,114.43Zm-40.17-9.29a33,33,0,0,0,34.09,0A32.13,32.13,0,0,0,2170.15,92,42.35,42.35,0,0,0,2174.29,73a42.35,42.35,0,0,0-4.14-19,32.13,32.13,0,0,0-11.57-13.1,33,33,0,0,0-34.09,0,32.11,32.11,0,0,0-11.56,13.1,42.35,42.35,0,0,0-4.14,19A42.35,42.35,0,0,0,2112.93,92,32.11,32.11,0,0,0,2124.49,105.14Z"/><path class="cls-1" d="M2254.36,29.74a26.08,26.08,0,0,1,11,10,29,29,0,0,1,3.87,15.17,27.19,27.19,0,0,1-5.41,16.91,26.67,26.67,0,0,1-14.51,9.7l21,38.23h-13.1l-19.38-36h-23.93v36h-11.63V26.2h35.82A36,36,0,0,1,2254.36,29.74Zm-17.24,43.38q9.23,0,14.7-4.94t5.48-13.24q0-8.14-5.48-13.1t-14.57-4.94h-23.39V73.12Z"/><path class="cls-1" d="M2344.86,26.2V36.9h-48V66.84h40v10.7h-40v31.54h49.73v10.7h-61.36V26.2Z"/><path class="cls-1" d="M2376.68,104.34q6.95,5.68,17.64,5.68,9.63,0,15.58-4.21a13.56,13.56,0,0,0,5.95-11.7,11.59,11.59,0,0,0-3.28-8.69,19.85,19.85,0,0,0-8.42-4.74,118.72,118.72,0,0,0-14-3q-14-2.4-22.32-7.89T2359.57,52a24.76,24.76,0,0,1,4-14,26.3,26.3,0,0,1,11.29-9.42,39.51,39.51,0,0,1,16.65-3.34A40.41,40.41,0,0,1,2409,28.88a28.8,28.8,0,0,1,17,25h-11.5a19.21,19.21,0,0,0-7.35-13.1q-6.28-4.94-15.64-4.94t-14.84,4.07a13.41,13.41,0,0,0-5.48,11.43c0,3.57,1.07,6.35,3.21,8.36a20.58,20.58,0,0,0,8.28,4.54,115.52,115.52,0,0,0,13.91,3q14,2.42,22.46,8T2427.48,93a25.17,25.17,0,0,1-4.21,14.31,27.74,27.74,0,0,1-11.77,9.76,41.06,41.06,0,0,1-17.31,3.47,43.46,43.46,0,0,1-19.12-3.94,29.88,29.88,0,0,1-12.63-11.1,33.06,33.06,0,0,1-4.88-16.37h11.5A20.56,20.56,0,0,0,2376.68,104.34Z"/></g></g></svg>